<svg width="134" height="25" viewBox="0 0 134 25" fill="none" xmlns="http://www.w3.org/2000/svg">
<path d="M5.70583 16.2049V1.29223H0.5V20.7718H15.4638V16.2049H5.70583Z" fill="#6D6AFE"/>
<path d="M22.1801 20.7718V5.62621H16.9743V20.7718H22.1801ZM22.1801 4.46117V0.5H16.9743V4.46117H22.1801Z" fill="#6D6AFE"/>
<path d="M33.6713 5.16019C31.617 5.16019 30.0062 5.92913 28.909 7.21068V5.62621H23.7032V20.7718H28.909V13.9913C28.9557 11.0786 30.2397 9.84369 32.3407 9.84369C34.1382 9.84369 34.8385 10.7524 34.8385 12.9194V20.7718H40.0444V12.0107C40.0444 7.42039 38.3169 5.16019 33.6713 5.16019Z" fill="#6D6AFE"/>
<path d="M46.5405 10.5893V0.5H41.3347V20.7718H46.5405V17.2068L48.7116 14.667L51.2328 20.7718H56.9755L53.684 12.733H50.369L56.5087 5.62621H50.8359L46.5405 10.5893Z" fill="#6D6AFE"/>
<path d="M67.5849 21.2379C70.7364 21.2379 74.6116 19.4437 74.6116 13.199C74.6116 6.95437 70.7364 5.16019 67.5849 5.16019C65.8341 5.16019 64.27 5.67281 63.0094 6.53495V0.5H57.8035V20.7718H63.0094V19.8631C64.27 20.7485 65.8341 21.2379 67.5849 21.2379ZM66.2076 16.6942C64.41 16.6942 63.0094 15.7854 63.0094 13.199V13.0126C63.0794 10.5893 64.4567 9.70388 66.2076 9.70388C68.2152 9.70388 69.4058 10.7524 69.4058 13.199C69.4058 15.6689 68.2152 16.6942 66.2076 16.6942Z" fill="#6D6AFE"/>
<path d="M75.435 20.7718H80.6409V14.4573C80.6876 11.5214 82.0182 9.82039 86.6638 9.82039V5.16019C83.8624 5.16019 81.8781 6.13883 80.6409 7.6068V5.62621H75.435V20.7718Z" fill="#6D6AFE"/>
<path d="M94.041 21.2379C95.7685 21.2379 97.3559 20.7485 98.6165 19.8631V20.7718H103.822V5.62621H98.6165V6.53495C97.3559 5.67281 95.7685 5.16019 94.041 5.16019C90.8895 5.16019 87.0143 6.95437 87.0143 13.199C87.0143 19.4437 90.8895 21.2379 94.041 21.2379ZM95.4183 16.6942C93.4107 16.6942 92.2201 15.6689 92.2201 13.199C92.2201 10.7524 93.4107 9.70388 95.4183 9.70388C97.2159 9.70388 98.6165 10.6359 98.6165 13.199C98.6165 15.7854 97.2159 16.6942 95.4183 16.6942Z" fill="#6D6AFE"/>
<path d="M105.113 20.7718H110.319V14.4573C110.365 11.5214 111.696 9.82039 116.341 9.82039V5.16019C113.54 5.16019 111.556 6.13883 110.319 7.6068V5.62621H105.113V20.7718Z" fill="#6D6AFE"/>
<path d="M128.294 5.62621V12.2204C127.734 12.8495 126.73 13.1058 125.563 13.1058C123.088 13.1058 122.365 12.3369 122.365 10.9155V5.62621H117.159V11.2883C117.159 15.4359 120.1 17.6728 124.186 17.6728C125.703 17.6728 127.104 17.3466 128.294 16.7874V17.3466C128.294 19.4204 127.5 20.166 125.446 20.166C123.742 20.166 122.925 19.6534 122.691 18.465H117.462C117.883 22.7524 120.194 24.5 125.446 24.5C131.166 24.5 133.5 22.4029 133.5 16.9505V5.62621H128.294Z" fill="#6D6AFE"/>
</svg>
