<svg width="18" height="19" viewBox="0 0 18 19" fill="none" xmlns="http://www.w3.org/2000/svg">
<g clip-path="url(#clip0_5031_955)">
<path fill-rule="evenodd" clip-rule="evenodd" d="M7.39498 11.045C7.13138 10.7813 7.13138 10.354 7.39498 10.0904L13.8295 3.52012H10.3679C9.99513 3.52012 9.69292 3.21792 9.69292 2.84512C9.69292 2.47233 9.99513 2.17012 10.3679 2.17012H15.4591C15.8319 2.17012 16.1341 2.47233 16.1341 2.84512L16.1341 7.93629C16.1341 8.30909 15.8319 8.61129 15.4591 8.61129C15.0863 8.61129 14.7841 8.30908 14.7841 7.93629L14.7841 4.47472L8.34958 11.045C8.08597 11.3086 7.65859 11.3086 7.39498 11.045Z" fill="#9FA6B2"/>
<path fill-rule="evenodd" clip-rule="evenodd" d="M4.50002 4.7748C3.8787 4.7748 3.37502 5.27848 3.37502 5.8998V13.9998C3.37502 14.6211 3.8787 15.1248 4.50002 15.1248H12.6C13.2213 15.1248 13.725 14.6211 13.725 13.9998V10.8498C13.725 10.477 14.0272 10.1748 14.4 10.1748C14.7728 10.1748 15.075 10.477 15.075 10.8498V13.9998C15.075 15.3667 13.9669 16.4748 12.6 16.4748H4.50002C3.13312 16.4748 2.02502 15.3667 2.02502 13.9998V5.8998C2.02502 4.5329 3.13312 3.4248 4.50002 3.4248H7.65002C8.02282 3.4248 8.32502 3.72701 8.32502 4.0998C8.32502 4.4726 8.02282 4.7748 7.65002 4.7748H4.50002Z" fill="#9FA6B2"/>
</g>
<defs>
<clipPath id="clip0_5031_955">
<rect width="18" height="18" fill="white" transform="translate(0 0.5)"/>
</clipPath>
</defs>
</svg>
